<?xml version="1.0" encoding="UTF-8" standalone="no"?>
<!DOCTYPE svg PUBLIC "-//W3C//DTD SVG 1.1//EN" "http://www.w3.org/Graphics/SVG/1.1/DTD/svg11.dtd">
<svg width="100%" height="100%" viewBox="0 0 622 570" version="1.1" xmlns="http://www.w3.org/2000/svg" xmlns:xlink="http://www.w3.org/1999/xlink" xml:space="preserve" xmlns:serif="http://www.serif.com/" style="fill-rule:evenodd;clip-rule:evenodd;stroke-linecap:round;stroke-linejoin:round;stroke-miterlimit:1.5;">
    <g transform="matrix(1,0,0,1,-1084.77,-95.2338)">
        <g transform="matrix(0.866025,-0.5,0.5,0.866025,291.693,245.231)">
            <g transform="matrix(1,0,0,1,582.468,179.221)">
                <circle cx="317.532" cy="495.779" r="50.649" style="fill:none;stroke:white;stroke-width:8.33px;"/>
            </g>
            <path d="M1133.97,510.686C1138.91,505.325 1145.99,501.965 1153.85,501.965C1168.77,501.965 1180.88,514.078 1180.88,528.996C1180.88,542.079 1171.56,553.004 1159.21,555.494C1154.35,611.403 1071.67,698.477 953.084,766.945C812.952,847.851 675.395,872.337 646.097,821.591C616.799,770.845 706.783,663.961 846.916,583.055C966.187,514.194 1083.59,486.204 1133.97,510.686C1129.53,515.503 1126.82,521.935 1126.82,528.996C1126.82,543.915 1138.93,556.027 1153.85,556.027C1155.68,556.027 1157.48,555.844 1159.21,555.494" style="fill:none;stroke:white;stroke-width:8.33px;"/>
            <g transform="matrix(0.533686,0,0,0.533686,730.537,703.591)">
                <path d="M365.503,479.633C367.257,484.707 368.182,490.136 368.182,495.779C368.182,523.733 345.487,546.429 317.532,546.429C289.578,546.429 266.883,523.733 266.883,495.779C266.883,490.136 267.808,484.707 269.562,479.633" style="fill:none;stroke:white;stroke-width:15.61px;"/>
            </g>
            <path d="M874.399,959.565C828.145,927.893 793.831,812.425 793.831,675C793.831,513.189 841.404,381.818 900,381.818C958.596,381.818 1006.17,513.189 1006.17,675C1006.17,812.425 971.855,927.893 925.601,959.565C922.026,948.866 911.907,941.151 900,941.151C888.093,941.151 877.974,948.866 874.399,959.565Z" style="fill:none;stroke:white;stroke-width:8.33px;"/>
            <path d="M640.787,555.447C642.591,555.827 644.461,556.027 646.378,556.027C661.297,556.027 673.409,543.915 673.409,528.996C673.409,521.898 670.667,515.436 666.186,510.611C716.648,486.261 833.935,514.264 953.084,583.055C1093.22,663.961 1183.2,770.845 1153.9,821.591C1124.61,872.337 987.048,847.851 846.916,766.945C728.292,698.458 645.604,611.355 640.787,555.447C628.547,552.869 619.347,541.999 619.347,528.996C619.347,514.078 631.459,501.965 646.378,501.965C654.199,501.965 661.248,505.294 666.186,510.611" style="fill:none;stroke:white;stroke-width:8.33px;"/>
        </g>
    </g>
</svg>
