<?xml version="1.0" encoding="UTF-8" standalone="no"?>
<!DOCTYPE svg PUBLIC "-//W3C//DTD SVG 1.1//EN" "http://www.w3.org/Graphics/SVG/1.1/DTD/svg11.dtd">
<svg width="100%" height="100%" viewBox="0 0 621 544" version="1.1" xmlns="http://www.w3.org/2000/svg" xmlns:xlink="http://www.w3.org/1999/xlink" xml:space="preserve" xmlns:serif="http://www.serif.com/" style="fill-rule:evenodd;clip-rule:evenodd;stroke-linecap:round;stroke-linejoin:round;stroke-miterlimit:1.5;">
    <g transform="matrix(1,0,0,1,-771.952,-327.42)">
        <g transform="matrix(1,0,0,1,211.448,-323.821)">
            <g transform="matrix(1,0,0,1,-3.65258,21.9155)">
                <path d="M824.74,850.691C794.282,879.387 758.447,867.685 717.021,813.987C773.171,800.774 818.105,801.661 824.74,850.691Z" style="fill:none;stroke:white;stroke-width:8.33px;"/>
                <path d="M880.053,786.843C867.063,684.019 946.925,642.726 1075.17,633.492C1071.76,762.75 1036.57,857.059 904.365,822.375" style="fill:none;stroke:white;stroke-width:8.33px;"/>
                <g>
                    <path d="M867.817,936.693C866.897,863.405 888.768,794.697 1009.67,700.31" style="fill:none;stroke:white;stroke-width:8.33px;"/>
                </g>
                <path d="M871.703,880.943C861.517,870.283 847.87,861.189 830.763,853.66" style="fill:none;stroke:white;stroke-width:8.33px;"/>
            </g>
            <g>
                <path d="M564.67,1081.13C564.67,1081.13 663.049,981.354 704.962,981.925C752.137,982.566 760.911,991.828 800.551,990.641C836.356,989.568 892.331,989.743 911.666,989.766C950.559,989.812 968.003,1002.56 968.888,1028.3C969.804,1054.95 946.378,1068.09 911.678,1068.35C890.372,1068.51 811.921,1068.62 811.921,1068.62" style="fill:none;stroke:white;stroke-width:8.33px;"/>
                <path d="M641.346,1190.84C641.346,1190.84 683.112,1156.56 690.592,1152.82C698.073,1149.08 917.501,1150.95 924.358,1147.83C931.215,1144.71 1150.08,1012.03 1160,1005.6C1177.83,994.032 1179.68,972.813 1172.9,959.728C1165.99,946.398 1145.66,937.13 1124.46,947.104C1103.27,957.078 1009.76,1006.95 1009.76,1006.95" style="fill:none;stroke:white;stroke-width:8.33px;"/>
            </g>
        </g>
    </g>
</svg>
