<?xml version="1.0" encoding="UTF-8" standalone="no"?>
<!DOCTYPE svg PUBLIC "-//W3C//DTD SVG 1.1//EN" "http://www.w3.org/Graphics/SVG/1.1/DTD/svg11.dtd">
<svg width="100%" height="100%" viewBox="0 0 522 522" version="1.1" xmlns="http://www.w3.org/2000/svg" xmlns:xlink="http://www.w3.org/1999/xlink" xml:space="preserve" xmlns:serif="http://www.serif.com/" style="fill-rule:evenodd;clip-rule:evenodd;stroke-linecap:round;stroke-linejoin:round;stroke-miterlimit:1.5;">
    <g transform="matrix(1,0,0,1,-505.039,-89.329)">
        <g transform="matrix(1,0,0,1,277.278,-94.7777)">
            <g transform="matrix(1,0,0,1,-78.3786,-155.142)">
                <circle cx="566.748" cy="599.858" r="256.443" style="fill:none;stroke:white;stroke-width:8.33px;"/>
            </g>
            <path d="M231.927,444.716L744.812,444.716" style="fill:none;stroke:white;stroke-width:8.33px;"/>
            <path d="M488.37,188.273C689.619,284.92 675.7,617.987 488.37,701.158" style="fill:none;stroke:white;stroke-width:8.33px;"/>
            <g transform="matrix(-1,0,0,1,976.739,0)">
                <path d="M488.37,188.273C689.619,284.92 675.7,617.987 488.37,701.158" style="fill:none;stroke:white;stroke-width:8.33px;"/>
            </g>
            <path d="M290.353,281.322C366.002,334.63 613.114,333.82 680.353,277.815" style="fill:none;stroke:white;stroke-width:8.33px;"/>
            <g transform="matrix(1,0,0,-1,3.01641,890.132)">
                <path d="M290.353,281.322C366.002,334.63 613.114,333.82 680.353,277.815" style="fill:none;stroke:white;stroke-width:8.33px;"/>
            </g>
            <path d="M488.37,188.273L488.37,701.158" style="fill:none;stroke:white;stroke-width:8.33px;"/>
        </g>
    </g>
</svg>
